<?xml version="1.0" encoding="UTF-8" standalone="no"?>
<svg
   viewBox="0 0 128 128"
   role="img"
   aria-labelledby="title desc"
   version="1.1"
   id="svg6"
   sodipodi:docname="logo.svg"
   inkscape:version="1.3.2 (091e20e, 2023-11-25, custom)"
   inkscape:export-filename="logo.png"
   inkscape:export-xdpi="144"
   inkscape:export-ydpi="144"
   xmlns:inkscape="http://www.inkscape.org/namespaces/inkscape"
   xmlns:sodipodi="http://sodipodi.sourceforge.net/DTD/sodipodi-0.dtd"
   xmlns="http://www.w3.org/2000/svg"
   xmlns:svg="http://www.w3.org/2000/svg">
  <defs
     id="defs6" />
  <sodipodi:namedview
     id="namedview6"
     pagecolor="#ffffff"
     bordercolor="#000000"
     borderopacity="0.25"
     inkscape:showpageshadow="2"
     inkscape:pageopacity="0.0"
     inkscape:pagecheckerboard="0"
     inkscape:deskcolor="#d1d1d1"
     inkscape:zoom="7.1054688"
     inkscape:cx="36.31006"
     inkscape:cy="73.886751"
     inkscape:window-width="3820"
     inkscape:window-height="2009"
     inkscape:window-x="1919"
     inkscape:window-y="16"
     inkscape:window-maximized="0"
     inkscape:current-layer="g6" />
  <title
     id="title">Grimoire</title>
  <desc
     id="desc">An open spellbook with a magical AI spark rising from its pages.</desc>
  <!-- main spark (AI / magic) -->
  <!-- small spark, right -->
  <!-- small spark, left -->
  <!-- book cover -->
  <!-- pages -->
  <!-- center spine groove -->
  <g
     id="g6"
     transform="matrix(1.0668848,0,0,1.0668848,-4.2806272,4.7878936)">
    <path
       fill="#ffb02e"
       d="M 64,5 Q 68.5,25.5 90,30 68.5,34.5 64,55 59.5,34.5 38,30 59.5,25.5 64,5 Z"
       id="path1" />
    <path
       fill="#ffb02e"
       d="m 99,8 q 1.8,7.2 9,9 -7.2,1.8 -9,9 -1.8,-7.2 -9,-9 7.2,-1.8 9,-9 z"
       id="path2" />
    <path
       fill="#ffb02e"
       d="m 29,16 q 1.2,4.8 6,6 -4.8,1.2 -6,6 -1.2,-4.8 -6,-6 4.8,-1.2 6,-6 z"
       id="path3" />
    <path
       fill="#6d52f4"
       d="M 16,60 C 32,54 50,58 64,68 78,58 96,54 112,60 V 98 C 96,92 78,96 64,106 50,96 32,92 16,98 Z"
       id="path4" />
    <path
       fill="#dcd2fc"
       d="m 24,66 c 12,-4 26,-1 40,8 14,-9 28,-12 40,-8 V 92 C 92,88 78,90 64,98 50,90 36,88 24,92 Z"
       id="path5" />
    <path
       d="M 64,78 V 94"
       stroke="#6d52f4"
       stroke-width="3.5"
       stroke-linecap="round"
       fill="none"
       id="path6" />
  </g>
</svg>
